<svg xmlns="http://www.w3.org/2000/svg" width="100%" height="100%" viewBox="61 90 120 55" version="1.1">
    <g stroke="#1C1C1E" stroke-width="2" fill="none" stroke-linecap="round" stroke-linejoin="round">
        <path d="M 68 101 h -4" />
        <rect x="68" y="95" width="16" height="12" />
        <path d="M 84 101 h 8" />
        <rect x="92" y="95" width="16" height="12" />
        <path d="M 108 101 h 4" />
        <path d="M 73 135 Q 88 145 103 135" fill="none" />
    </g>
    <path d="M80.65993463993073 128.0 84.52601468007151 109.8115234375H88.2559377495486L85.04713420200976 124.90775722265244H92.8899312429491L92.23265475034714 128.0Z" fill="#1C1C1E" /><path d="M98.91065660119057 128.1708984375Q97.49830442667007 128.1708984375 96.43812443315983 127.55383501946926Q95.37794443964958 126.93677160143852 94.79481469094753 125.78271913528442Q94.21168494224548 124.62866666913033 94.21168494224548 123.0327143073082V114.3525390625H97.87226992845535V122.3947933614254Q97.87226992845535 123.66629007458687 98.53096830844879 124.38931937515736Q99.18966668844223 125.11234867572784 100.34763666987419 125.11234867572784Q101.12645331025124 125.11234867572784 101.72033275663853 124.77408821880817Q102.31421220302582 124.4358277618885 102.65381637215614 123.79312019050121Q102.99342054128647 123.15041261911392 102.99342054128647 122.25440579652786V114.3525390625H106.65962103009224V128.0H103.19751727581024L103.14478504657745 124.59302160143852H103.35865545272827Q102.81617122888565 126.31177964806557 101.71631503105164 127.24133904278278Q100.61645883321762 128.1708984375 98.91065660119057 128.1708984375Z" fill="#1C1C1E" /><path d="M112.93623477220535 120.09813326597214V128.0H109.27564978599548V114.3525390625H112.73213803768158L112.79048576951027 117.75951746106148H112.57099986076355Q113.10786858201027 116.05199041962624 114.20210927724838 115.11681552231312Q115.2963499724865 114.181640625 117.02461421489716 114.181640625Q118.44355791807175 114.181640625 119.497634395957 114.79870404303074Q120.55171087384224 115.41576746106148 121.13484062254429 116.56701217591763Q121.71797037124634 117.71825689077377 121.71797037124634 119.3198247551918V128.0H118.05738538503647V119.9577457010746Q118.05738538503647 118.68624898791313 117.40149475634098 117.96321968734264Q116.74560412764549 117.24019038677216 115.58763414621353 117.24019038677216Q114.81540903449059 117.24019038677216 114.2154260724783 117.57845084369183Q113.615443110466 117.9167113006115 113.27583894133568 118.55331535637379Q112.93623477220535 119.18991941213608 112.93623477220535 120.09813326597214Z" fill="#1C1C1E" /><path d="M130.446044921875 128.29296875Q128.468505859375 128.29296875 127.0341796875 127.4140625Q125.599853515625 126.53515625 124.82470703125 124.96044921875Q124.049560546875 123.3857421875 124.049560546875 121.2861328125Q124.049560546875 119.1865234375 124.806396484375 117.58740234375Q125.563232421875 115.98828125 126.94873046875 115.0849609375Q128.334228515625 114.181640625 130.189697265625 114.181640625Q131.276123046875 114.181640625 132.33203125 114.541748046875Q133.387939453125 114.90185546875 134.24853515625 115.701416015625Q135.109130859375 116.5009765625 135.621826171875 117.80712890625Q136.134521484375 119.11328125 136.134521484375 121.00537109375V121.9208984375H125.538818359375V120.0654296875H134.950439453125L133.925048828125 120.7490234375Q133.925048828125 119.40625 133.50390625 118.362548828125Q133.082763671875 117.31884765625 132.252685546875 116.726806640625Q131.422607421875 116.134765625 130.189697265625 116.134765625Q128.956787109375 116.134765625 128.077880859375 116.739013671875Q127.198974609375 117.34326171875 126.735107421875 118.313720703125Q126.271240234375 119.2841796875 126.271240234375 120.39501953125V121.6279296875Q126.271240234375 123.1416015625 126.796142578125 124.197509765625Q127.321044921875 125.25341796875 128.26708984375 125.796630859375Q129.213134765625 126.33984375 130.458251953125 126.33984375Q131.263916015625 126.33984375 131.923095703125 126.10791015625Q132.582275390625 125.8759765625 133.058349609375 125.406005859375Q133.534423828125 124.93603515625 133.790771484375 124.240234375L135.914794921875 124.826171875Q135.597412109375 125.8515625 134.840576171875 126.6328125Q134.083740234375 127.4140625 132.966796875 127.853515625Q131.849853515625 128.29296875 130.446044921875 128.29296875Z" fill="#1C1C1E" /><path d="M144.155029296875 114.3525390625V116.232421875H137.099365234375V114.3525390625ZM139.150146484375 111.10546875H141.347412109375V124.4599609375Q141.347412109375 125.37548828125 141.7197265625 125.796630859375Q142.092041015625 126.2177734375 142.958740234375 126.2177734375Q143.166259765625 126.2177734375 143.48974609375 126.1689453125Q143.813232421875 126.1201171875 144.081787109375 126.0712890625L144.533447265625 127.9267578125Q144.191650390625 128.048828125 143.75830078125 128.10986328125Q143.324951171875 128.1708984375 142.897705078125 128.1708984375Q141.127685546875 128.1708984375 140.138916015625 127.237060546875Q139.150146484375 126.30322265625 139.150146484375 124.630859375Z" fill="#1C1C1E" /><path d="M151.833740234375 114.3525390625V116.232421875H144.778076171875V114.3525390625ZM146.828857421875 111.10546875H149.026123046875V124.4599609375Q149.026123046875 125.37548828125 149.3984375 125.796630859375Q149.770751953125 126.2177734375 150.637451171875 126.2177734375Q150.844970703125 126.2177734375 151.16845703125 126.1689453125Q151.491943359375 126.1201171875 151.760498046875 126.0712890625L152.212158203125 127.9267578125Q151.870361328125 128.048828125 151.43701171875 128.10986328125Q151.003662109375 128.1708984375 150.576416015625 128.1708984375Q148.806396484375 128.1708984375 147.817626953125 127.237060546875Q146.828857421875 126.30322265625 146.828857421875 124.630859375Z" fill="#1C1C1E" /><path d="M159.878662109375 128.29296875Q157.901123046875 128.29296875 156.466796875 127.4140625Q155.032470703125 126.53515625 154.25732421875 124.96044921875Q153.482177734375 123.3857421875 153.482177734375 121.2861328125Q153.482177734375 119.1865234375 154.239013671875 117.58740234375Q154.995849609375 115.98828125 156.38134765625 115.0849609375Q157.766845703125 114.181640625 159.622314453125 114.181640625Q160.708740234375 114.181640625 161.7646484375 114.541748046875Q162.820556640625 114.90185546875 163.68115234375 115.701416015625Q164.541748046875 116.5009765625 165.054443359375 117.80712890625Q165.567138671875 119.11328125 165.567138671875 121.00537109375V121.9208984375H154.971435546875V120.0654296875H164.383056640625L163.357666015625 120.7490234375Q163.357666015625 119.40625 162.9365234375 118.362548828125Q162.515380859375 117.31884765625 161.685302734375 116.726806640625Q160.855224609375 116.134765625 159.622314453125 116.134765625Q158.389404296875 116.134765625 157.510498046875 116.739013671875Q156.631591796875 117.34326171875 156.167724609375 118.313720703125Q155.703857421875 119.2841796875 155.703857421875 120.39501953125V121.6279296875Q155.703857421875 123.1416015625 156.228759765625 124.197509765625Q156.753662109375 125.25341796875 157.69970703125 125.796630859375Q158.645751953125 126.33984375 159.890869140625 126.33984375Q160.696533203125 126.33984375 161.355712890625 126.10791015625Q162.014892578125 125.8759765625 162.490966796875 125.406005859375Q162.967041015625 124.93603515625 163.223388671875 124.240234375L165.347412109375 124.826171875Q165.030029296875 125.8515625 164.273193359375 126.6328125Q163.516357421875 127.4140625 162.3994140625 127.853515625Q161.282470703125 128.29296875 159.878662109375 128.29296875Z" fill="#1C1C1E" /><path d="M172.855224609375 128.29296875Q171.451416015625 128.29296875 170.35888671875 127.884033203125Q169.266357421875 127.47509765625 168.558349609375 126.66943359375Q167.850341796875 125.86376953125 167.606201171875 124.69189453125L169.693603515625 124.19140625Q169.986572265625 125.314453125 170.79833984375 125.83935546875Q171.610107421875 126.3642578125 172.830810546875 126.3642578125Q174.259033203125 126.3642578125 175.107421875 125.75390625Q175.955810546875 125.1435546875 175.955810546875 124.30126953125Q175.955810546875 123.59326171875 175.46142578125 123.123291015625Q174.967041015625 122.6533203125 173.953857421875 122.42138671875L171.683349609375 121.88427734375Q169.827880859375 121.44482421875 168.924560546875 120.523193359375Q168.021240234375 119.6015625 168.021240234375 118.1611328125Q168.021240234375 116.9892578125 168.680419921875 116.092041015625Q169.339599609375 115.19482421875 170.48095703125 114.688232421875Q171.622314453125 114.181640625 173.074951171875 114.181640625Q174.478759765625 114.181640625 175.46142578125 114.602783203125Q176.444091796875 115.02392578125 177.060546875 115.762451171875Q177.677001953125 116.5009765625 177.982177734375 117.46533203125L175.992431640625 117.97802734375Q175.711669921875 117.24560546875 175.05859375 116.6474609375Q174.405517578125 116.04931640625 173.087158203125 116.04931640625Q171.866455078125 116.04931640625 171.0546875 116.61083984375Q170.242919921875 117.17236328125 170.242919921875 118.02685546875Q170.242919921875 118.78369140625 170.792236328125 119.241455078125Q171.341552734375 119.69921875 172.537841796875 119.97998046875L174.600830078125 120.46826171875Q176.456298828125 120.90771484375 177.347412109375 121.829345703125Q178.238525390625 122.7509765625 178.238525390625 124.15478515625Q178.238525390625 125.35107421875 177.56103515625 126.284912109375Q176.883544921875 127.21875 175.6689453125 127.755859375Q174.454345703125 128.29296875 172.855224609375 128.29296875Z" fill="#1C1C1E" /></svg>